<?xml version="1.0" encoding="utf-8" standalone="no"?>
<!DOCTYPE svg PUBLIC "-//W3C//DTD SVG 1.1//EN"
  "http://www.w3.org/Graphics/SVG/1.1/DTD/svg11.dtd">
<svg xmlns:xlink="http://www.w3.org/1999/xlink" width="288pt" height="216pt" viewBox="0 0 288 216" xmlns="http://www.w3.org/2000/svg" version="1.1">
 <metadata>
  <rdf:RDF xmlns:dc="http://purl.org/dc/elements/1.1/" xmlns:cc="http://creativecommons.org/ns#" xmlns:rdf="http://www.w3.org/1999/02/22-rdf-syntax-ns#">
   <cc:Work>
    <dc:type rdf:resource="http://purl.org/dc/dcmitype/StillImage"/>
    <dc:date>2024-11-17T21:31:29.681623</dc:date>
    <dc:format>image/svg+xml</dc:format>
    <dc:creator>
     <cc:Agent>
      <dc:title>Matplotlib v3.9.2, https://matplotlib.org/</dc:title>
     </cc:Agent>
    </dc:creator>
   </cc:Work>
  </rdf:RDF>
 </metadata>
 <defs>
  <style type="text/css">*{stroke-linejoin: round; stroke-linecap: butt}</style>
 </defs>
 <g id="figure_1">
  <g id="patch_1">
   <path d="M 0 216 
L 288 216 
L 288 0 
L 0 0 
z
" style="fill: #ffffff"/>
  </g>
  <g id="axes_1">
   <g id="patch_2">
    <path d="M 53.46 167.94 
L 275.04 167.94 
L 275.04 12.96 
L 53.46 12.96 
z
" style="fill: #eaeaf2"/>
   </g>
   <g id="matplotlib.axis_1">
    <g id="xtick_1">
     <g id="line2d_1">
      <path d="M 72.812028 167.94 
L 72.812028 12.96 
" clip-path="url(#p3cf1e89b98)" style="fill: none; stroke: #ffffff; stroke-linecap: round"/>
     </g>
     <g id="text_1">
      <!-- −2 -->
      <g style="fill: #262626" transform="translate(64.703824 185.798281) scale(0.11 -0.11)">
       <defs>
        <path id="DejaVuSans-2212" d="M 678 2272 
L 4684 2272 
L 4684 1741 
L 678 1741 
L 678 2272 
z
" transform="scale(0.015625)"/>
        <path id="DejaVuSans-32" d="M 1228 531 
L 3431 531 
L 3431 0 
L 469 0 
L 469 531 
Q 828 903 1448 1529 
Q 2069 2156 2228 2338 
Q 2531 2678 2651 2914 
Q 2772 3150 2772 3378 
Q 2772 3750 2511 3984 
Q 2250 4219 1831 4219 
Q 1534 4219 1204 4116 
Q 875 4013 500 3803 
L 500 4441 
Q 881 4594 1212 4672 
Q 1544 4750 1819 4750 
Q 2544 4750 2975 4387 
Q 3406 4025 3406 3419 
Q 3406 3131 3298 2873 
Q 3191 2616 2906 2266 
Q 2828 2175 2409 1742 
Q 1991 1309 1228 531 
z
" transform="scale(0.015625)"/>
       </defs>
       <use xlink:href="#DejaVuSans-2212"/>
       <use xlink:href="#DejaVuSans-32" x="83.789062"/>
      </g>
     </g>
    </g>
    <g id="xtick_2">
     <g id="line2d_2">
      <path d="M 118.531014 167.94 
L 118.531014 12.96 
" clip-path="url(#p3cf1e89b98)" style="fill: none; stroke: #ffffff; stroke-linecap: round"/>
     </g>
     <g id="text_2">
      <!-- −1 -->
      <g style="fill: #262626" transform="translate(110.422811 185.798281) scale(0.11 -0.11)">
       <defs>
        <path id="DejaVuSans-31" d="M 794 531 
L 1825 531 
L 1825 4091 
L 703 3866 
L 703 4441 
L 1819 4666 
L 2450 4666 
L 2450 531 
L 3481 531 
L 3481 0 
L 794 0 
L 794 531 
z
" transform="scale(0.015625)"/>
       </defs>
       <use xlink:href="#DejaVuSans-2212"/>
       <use xlink:href="#DejaVuSans-31" x="83.789062"/>
      </g>
     </g>
    </g>
    <g id="xtick_3">
     <g id="line2d_3">
      <path d="M 164.25 167.94 
L 164.25 12.96 
" clip-path="url(#p3cf1e89b98)" style="fill: none; stroke: #ffffff; stroke-linecap: round"/>
     </g>
     <g id="text_3">
      <!-- 0 -->
      <g style="fill: #262626" transform="translate(160.750625 185.798281) scale(0.11 -0.11)">
       <defs>
        <path id="DejaVuSans-30" d="M 2034 4250 
Q 1547 4250 1301 3770 
Q 1056 3291 1056 2328 
Q 1056 1369 1301 889 
Q 1547 409 2034 409 
Q 2525 409 2770 889 
Q 3016 1369 3016 2328 
Q 3016 3291 2770 3770 
Q 2525 4250 2034 4250 
z
M 2034 4750 
Q 2819 4750 3233 4129 
Q 3647 3509 3647 2328 
Q 3647 1150 3233 529 
Q 2819 -91 2034 -91 
Q 1250 -91 836 529 
Q 422 1150 422 2328 
Q 422 3509 836 4129 
Q 1250 4750 2034 4750 
z
" transform="scale(0.015625)"/>
       </defs>
       <use xlink:href="#DejaVuSans-30"/>
      </g>
     </g>
    </g>
    <g id="xtick_4">
     <g id="line2d_4">
      <path d="M 209.968986 167.94 
L 209.968986 12.96 
" clip-path="url(#p3cf1e89b98)" style="fill: none; stroke: #ffffff; stroke-linecap: round"/>
     </g>
     <g id="text_4">
      <!-- 1 -->
      <g style="fill: #262626" transform="translate(206.469611 185.798281) scale(0.11 -0.11)">
       <use xlink:href="#DejaVuSans-31"/>
      </g>
     </g>
    </g>
    <g id="xtick_5">
     <g id="line2d_5">
      <path d="M 255.687972 167.94 
L 255.687972 12.96 
" clip-path="url(#p3cf1e89b98)" style="fill: none; stroke: #ffffff; stroke-linecap: round"/>
     </g>
     <g id="text_5">
      <!-- 2 -->
      <g style="fill: #262626" transform="translate(252.188597 185.798281) scale(0.11 -0.11)">
       <use xlink:href="#DejaVuSans-32"/>
      </g>
     </g>
    </g>
    <g id="text_6">
     <!-- Theoretical Quantiles -->
     <g style="fill: #262626" transform="translate(100.319063 201.204062) scale(0.12 -0.12)">
      <defs>
       <path id="DejaVuSans-54" d="M -19 4666 
L 3928 4666 
L 3928 4134 
L 2272 4134 
L 2272 0 
L 1638 0 
L 1638 4134 
L -19 4134 
L -19 4666 
z
" transform="scale(0.015625)"/>
       <path id="DejaVuSans-68" d="M 3513 2113 
L 3513 0 
L 2938 0 
L 2938 2094 
Q 2938 2591 2744 2837 
Q 2550 3084 2163 3084 
Q 1697 3084 1428 2787 
Q 1159 2491 1159 1978 
L 1159 0 
L 581 0 
L 581 4863 
L 1159 4863 
L 1159 2956 
Q 1366 3272 1645 3428 
Q 1925 3584 2291 3584 
Q 2894 3584 3203 3211 
Q 3513 2838 3513 2113 
z
" transform="scale(0.015625)"/>
       <path id="DejaVuSans-65" d="M 3597 1894 
L 3597 1613 
L 953 1613 
Q 991 1019 1311 708 
Q 1631 397 2203 397 
Q 2534 397 2845 478 
Q 3156 559 3463 722 
L 3463 178 
Q 3153 47 2828 -22 
Q 2503 -91 2169 -91 
Q 1331 -91 842 396 
Q 353 884 353 1716 
Q 353 2575 817 3079 
Q 1281 3584 2069 3584 
Q 2775 3584 3186 3129 
Q 3597 2675 3597 1894 
z
M 3022 2063 
Q 3016 2534 2758 2815 
Q 2500 3097 2075 3097 
Q 1594 3097 1305 2825 
Q 1016 2553 972 2059 
L 3022 2063 
z
" transform="scale(0.015625)"/>
       <path id="DejaVuSans-6f" d="M 1959 3097 
Q 1497 3097 1228 2736 
Q 959 2375 959 1747 
Q 959 1119 1226 758 
Q 1494 397 1959 397 
Q 2419 397 2687 759 
Q 2956 1122 2956 1747 
Q 2956 2369 2687 2733 
Q 2419 3097 1959 3097 
z
M 1959 3584 
Q 2709 3584 3137 3096 
Q 3566 2609 3566 1747 
Q 3566 888 3137 398 
Q 2709 -91 1959 -91 
Q 1206 -91 779 398 
Q 353 888 353 1747 
Q 353 2609 779 3096 
Q 1206 3584 1959 3584 
z
" transform="scale(0.015625)"/>
       <path id="DejaVuSans-72" d="M 2631 2963 
Q 2534 3019 2420 3045 
Q 2306 3072 2169 3072 
Q 1681 3072 1420 2755 
Q 1159 2438 1159 1844 
L 1159 0 
L 581 0 
L 581 3500 
L 1159 3500 
L 1159 2956 
Q 1341 3275 1631 3429 
Q 1922 3584 2338 3584 
Q 2397 3584 2469 3576 
Q 2541 3569 2628 3553 
L 2631 2963 
z
" transform="scale(0.015625)"/>
       <path id="DejaVuSans-74" d="M 1172 4494 
L 1172 3500 
L 2356 3500 
L 2356 3053 
L 1172 3053 
L 1172 1153 
Q 1172 725 1289 603 
Q 1406 481 1766 481 
L 2356 481 
L 2356 0 
L 1766 0 
Q 1100 0 847 248 
Q 594 497 594 1153 
L 594 3053 
L 172 3053 
L 172 3500 
L 594 3500 
L 594 4494 
L 1172 4494 
z
" transform="scale(0.015625)"/>
       <path id="DejaVuSans-69" d="M 603 3500 
L 1178 3500 
L 1178 0 
L 603 0 
L 603 3500 
z
M 603 4863 
L 1178 4863 
L 1178 4134 
L 603 4134 
L 603 4863 
z
" transform="scale(0.015625)"/>
       <path id="DejaVuSans-63" d="M 3122 3366 
L 3122 2828 
Q 2878 2963 2633 3030 
Q 2388 3097 2138 3097 
Q 1578 3097 1268 2742 
Q 959 2388 959 1747 
Q 959 1106 1268 751 
Q 1578 397 2138 397 
Q 2388 397 2633 464 
Q 2878 531 3122 666 
L 3122 134 
Q 2881 22 2623 -34 
Q 2366 -91 2075 -91 
Q 1284 -91 818 406 
Q 353 903 353 1747 
Q 353 2603 823 3093 
Q 1294 3584 2113 3584 
Q 2378 3584 2631 3529 
Q 2884 3475 3122 3366 
z
" transform="scale(0.015625)"/>
       <path id="DejaVuSans-61" d="M 2194 1759 
Q 1497 1759 1228 1600 
Q 959 1441 959 1056 
Q 959 750 1161 570 
Q 1363 391 1709 391 
Q 2188 391 2477 730 
Q 2766 1069 2766 1631 
L 2766 1759 
L 2194 1759 
z
M 3341 1997 
L 3341 0 
L 2766 0 
L 2766 531 
Q 2569 213 2275 61 
Q 1981 -91 1556 -91 
Q 1019 -91 701 211 
Q 384 513 384 1019 
Q 384 1609 779 1909 
Q 1175 2209 1959 2209 
L 2766 2209 
L 2766 2266 
Q 2766 2663 2505 2880 
Q 2244 3097 1772 3097 
Q 1472 3097 1187 3025 
Q 903 2953 641 2809 
L 641 3341 
Q 956 3463 1253 3523 
Q 1550 3584 1831 3584 
Q 2591 3584 2966 3190 
Q 3341 2797 3341 1997 
z
" transform="scale(0.015625)"/>
       <path id="DejaVuSans-6c" d="M 603 4863 
L 1178 4863 
L 1178 0 
L 603 0 
L 603 4863 
z
" transform="scale(0.015625)"/>
       <path id="DejaVuSans-20" transform="scale(0.015625)"/>
       <path id="DejaVuSans-51" d="M 2522 4238 
Q 1834 4238 1429 3725 
Q 1025 3213 1025 2328 
Q 1025 1447 1429 934 
Q 1834 422 2522 422 
Q 3209 422 3611 934 
Q 4013 1447 4013 2328 
Q 4013 3213 3611 3725 
Q 3209 4238 2522 4238 
z
M 3406 84 
L 4238 -825 
L 3475 -825 
L 2784 -78 
Q 2681 -84 2626 -87 
Q 2572 -91 2522 -91 
Q 1538 -91 948 567 
Q 359 1225 359 2328 
Q 359 3434 948 4092 
Q 1538 4750 2522 4750 
Q 3503 4750 4090 4092 
Q 4678 3434 4678 2328 
Q 4678 1516 4351 937 
Q 4025 359 3406 84 
z
" transform="scale(0.015625)"/>
       <path id="DejaVuSans-75" d="M 544 1381 
L 544 3500 
L 1119 3500 
L 1119 1403 
Q 1119 906 1312 657 
Q 1506 409 1894 409 
Q 2359 409 2629 706 
Q 2900 1003 2900 1516 
L 2900 3500 
L 3475 3500 
L 3475 0 
L 2900 0 
L 2900 538 
Q 2691 219 2414 64 
Q 2138 -91 1772 -91 
Q 1169 -91 856 284 
Q 544 659 544 1381 
z
M 1991 3584 
L 1991 3584 
z
" transform="scale(0.015625)"/>
       <path id="DejaVuSans-6e" d="M 3513 2113 
L 3513 0 
L 2938 0 
L 2938 2094 
Q 2938 2591 2744 2837 
Q 2550 3084 2163 3084 
Q 1697 3084 1428 2787 
Q 1159 2491 1159 1978 
L 1159 0 
L 581 0 
L 581 3500 
L 1159 3500 
L 1159 2956 
Q 1366 3272 1645 3428 
Q 1925 3584 2291 3584 
Q 2894 3584 3203 3211 
Q 3513 2838 3513 2113 
z
" transform="scale(0.015625)"/>
       <path id="DejaVuSans-73" d="M 2834 3397 
L 2834 2853 
Q 2591 2978 2328 3040 
Q 2066 3103 1784 3103 
Q 1356 3103 1142 2972 
Q 928 2841 928 2578 
Q 928 2378 1081 2264 
Q 1234 2150 1697 2047 
L 1894 2003 
Q 2506 1872 2764 1633 
Q 3022 1394 3022 966 
Q 3022 478 2636 193 
Q 2250 -91 1575 -91 
Q 1294 -91 989 -36 
Q 684 19 347 128 
L 347 722 
Q 666 556 975 473 
Q 1284 391 1588 391 
Q 1994 391 2212 530 
Q 2431 669 2431 922 
Q 2431 1156 2273 1281 
Q 2116 1406 1581 1522 
L 1381 1569 
Q 847 1681 609 1914 
Q 372 2147 372 2553 
Q 372 3047 722 3315 
Q 1072 3584 1716 3584 
Q 2034 3584 2315 3537 
Q 2597 3491 2834 3397 
z
" transform="scale(0.015625)"/>
      </defs>
      <use xlink:href="#DejaVuSans-54"/>
      <use xlink:href="#DejaVuSans-68" x="61.083984"/>
      <use xlink:href="#DejaVuSans-65" x="124.462891"/>
      <use xlink:href="#DejaVuSans-6f" x="185.986328"/>
      <use xlink:href="#DejaVuSans-72" x="247.167969"/>
      <use xlink:href="#DejaVuSans-65" x="286.03125"/>
      <use xlink:href="#DejaVuSans-74" x="347.554688"/>
      <use xlink:href="#DejaVuSans-69" x="386.763672"/>
      <use xlink:href="#DejaVuSans-63" x="414.546875"/>
      <use xlink:href="#DejaVuSans-61" x="469.527344"/>
      <use xlink:href="#DejaVuSans-6c" x="530.806641"/>
      <use xlink:href="#DejaVuSans-20" x="558.589844"/>
      <use xlink:href="#DejaVuSans-51" x="590.376953"/>
      <use xlink:href="#DejaVuSans-75" x="669.087891"/>
      <use xlink:href="#DejaVuSans-61" x="732.466797"/>
      <use xlink:href="#DejaVuSans-6e" x="793.746094"/>
      <use xlink:href="#DejaVuSans-74" x="857.125"/>
      <use xlink:href="#DejaVuSans-69" x="896.333984"/>
      <use xlink:href="#DejaVuSans-6c" x="924.117188"/>
      <use xlink:href="#DejaVuSans-65" x="951.900391"/>
      <use xlink:href="#DejaVuSans-73" x="1013.423828"/>
     </g>
    </g>
   </g>
   <g id="matplotlib.axis_2">
    <g id="ytick_1">
     <g id="line2d_6">
      <path d="M 53.46 158.564592 
L 275.04 158.564592 
" clip-path="url(#p3cf1e89b98)" style="fill: none; stroke: #ffffff; stroke-linecap: round"/>
     </g>
     <g id="text_7">
      <!-- −2 -->
      <g style="fill: #262626" transform="translate(27.743594 162.743733) scale(0.11 -0.11)">
       <use xlink:href="#DejaVuSans-2212"/>
       <use xlink:href="#DejaVuSans-32" x="83.789062"/>
      </g>
     </g>
    </g>
    <g id="ytick_2">
     <g id="line2d_7">
      <path d="M 53.46 131.629486 
L 275.04 131.629486 
" clip-path="url(#p3cf1e89b98)" style="fill: none; stroke: #ffffff; stroke-linecap: round"/>
     </g>
     <g id="text_8">
      <!-- −1 -->
      <g style="fill: #262626" transform="translate(27.743594 135.808626) scale(0.11 -0.11)">
       <use xlink:href="#DejaVuSans-2212"/>
       <use xlink:href="#DejaVuSans-31" x="83.789062"/>
      </g>
     </g>
    </g>
    <g id="ytick_3">
     <g id="line2d_8">
      <path d="M 53.46 104.694379 
L 275.04 104.694379 
" clip-path="url(#p3cf1e89b98)" style="fill: none; stroke: #ffffff; stroke-linecap: round"/>
     </g>
     <g id="text_9">
      <!-- 0 -->
      <g style="fill: #262626" transform="translate(36.96125 108.87352) scale(0.11 -0.11)">
       <use xlink:href="#DejaVuSans-30"/>
      </g>
     </g>
    </g>
    <g id="ytick_4">
     <g id="line2d_9">
      <path d="M 53.46 77.759272 
L 275.04 77.759272 
" clip-path="url(#p3cf1e89b98)" style="fill: none; stroke: #ffffff; stroke-linecap: round"/>
     </g>
     <g id="text_10">
      <!-- 1 -->
      <g style="fill: #262626" transform="translate(36.96125 81.938413) scale(0.11 -0.11)">
       <use xlink:href="#DejaVuSans-31"/>
      </g>
     </g>
    </g>
    <g id="ytick_5">
     <g id="line2d_10">
      <path d="M 53.46 50.824166 
L 275.04 50.824166 
" clip-path="url(#p3cf1e89b98)" style="fill: none; stroke: #ffffff; stroke-linecap: round"/>
     </g>
     <g id="text_11">
      <!-- 2 -->
      <g style="fill: #262626" transform="translate(36.96125 55.003306) scale(0.11 -0.11)">
       <use xlink:href="#DejaVuSans-32"/>
      </g>
     </g>
    </g>
    <g id="ytick_6">
     <g id="line2d_11">
      <path d="M 53.46 23.889059 
L 275.04 23.889059 
" clip-path="url(#p3cf1e89b98)" style="fill: none; stroke: #ffffff; stroke-linecap: round"/>
     </g>
     <g id="text_12">
      <!-- 3 -->
      <g style="fill: #262626" transform="translate(36.96125 28.068199) scale(0.11 -0.11)">
       <defs>
        <path id="DejaVuSans-33" d="M 2597 2516 
Q 3050 2419 3304 2112 
Q 3559 1806 3559 1356 
Q 3559 666 3084 287 
Q 2609 -91 1734 -91 
Q 1441 -91 1130 -33 
Q 819 25 488 141 
L 488 750 
Q 750 597 1062 519 
Q 1375 441 1716 441 
Q 2309 441 2620 675 
Q 2931 909 2931 1356 
Q 2931 1769 2642 2001 
Q 2353 2234 1838 2234 
L 1294 2234 
L 1294 2753 
L 1863 2753 
Q 2328 2753 2575 2939 
Q 2822 3125 2822 3475 
Q 2822 3834 2567 4026 
Q 2313 4219 1838 4219 
Q 1578 4219 1281 4162 
Q 984 4106 628 3988 
L 628 4550 
Q 988 4650 1302 4700 
Q 1616 4750 1894 4750 
Q 2613 4750 3031 4423 
Q 3450 4097 3450 3541 
Q 3450 3153 3228 2886 
Q 3006 2619 2597 2516 
z
" transform="scale(0.015625)"/>
       </defs>
       <use xlink:href="#DejaVuSans-33"/>
      </g>
     </g>
    </g>
    <g id="text_13">
     <!-- Sample Quantiles -->
     <g style="fill: #262626" transform="translate(21.247969 143.363437) rotate(-90) scale(0.12 -0.12)">
      <defs>
       <path id="DejaVuSans-53" d="M 3425 4513 
L 3425 3897 
Q 3066 4069 2747 4153 
Q 2428 4238 2131 4238 
Q 1616 4238 1336 4038 
Q 1056 3838 1056 3469 
Q 1056 3159 1242 3001 
Q 1428 2844 1947 2747 
L 2328 2669 
Q 3034 2534 3370 2195 
Q 3706 1856 3706 1288 
Q 3706 609 3251 259 
Q 2797 -91 1919 -91 
Q 1588 -91 1214 -16 
Q 841 59 441 206 
L 441 856 
Q 825 641 1194 531 
Q 1563 422 1919 422 
Q 2459 422 2753 634 
Q 3047 847 3047 1241 
Q 3047 1584 2836 1778 
Q 2625 1972 2144 2069 
L 1759 2144 
Q 1053 2284 737 2584 
Q 422 2884 422 3419 
Q 422 4038 858 4394 
Q 1294 4750 2059 4750 
Q 2388 4750 2728 4690 
Q 3069 4631 3425 4513 
z
" transform="scale(0.015625)"/>
       <path id="DejaVuSans-6d" d="M 3328 2828 
Q 3544 3216 3844 3400 
Q 4144 3584 4550 3584 
Q 5097 3584 5394 3201 
Q 5691 2819 5691 2113 
L 5691 0 
L 5113 0 
L 5113 2094 
Q 5113 2597 4934 2840 
Q 4756 3084 4391 3084 
Q 3944 3084 3684 2787 
Q 3425 2491 3425 1978 
L 3425 0 
L 2847 0 
L 2847 2094 
Q 2847 2600 2669 2842 
Q 2491 3084 2119 3084 
Q 1678 3084 1418 2786 
Q 1159 2488 1159 1978 
L 1159 0 
L 581 0 
L 581 3500 
L 1159 3500 
L 1159 2956 
Q 1356 3278 1631 3431 
Q 1906 3584 2284 3584 
Q 2666 3584 2933 3390 
Q 3200 3197 3328 2828 
z
" transform="scale(0.015625)"/>
       <path id="DejaVuSans-70" d="M 1159 525 
L 1159 -1331 
L 581 -1331 
L 581 3500 
L 1159 3500 
L 1159 2969 
Q 1341 3281 1617 3432 
Q 1894 3584 2278 3584 
Q 2916 3584 3314 3078 
Q 3713 2572 3713 1747 
Q 3713 922 3314 415 
Q 2916 -91 2278 -91 
Q 1894 -91 1617 61 
Q 1341 213 1159 525 
z
M 3116 1747 
Q 3116 2381 2855 2742 
Q 2594 3103 2138 3103 
Q 1681 3103 1420 2742 
Q 1159 2381 1159 1747 
Q 1159 1113 1420 752 
Q 1681 391 2138 391 
Q 2594 391 2855 752 
Q 3116 1113 3116 1747 
z
" transform="scale(0.015625)"/>
      </defs>
      <use xlink:href="#DejaVuSans-53"/>
      <use xlink:href="#DejaVuSans-61" x="63.476562"/>
      <use xlink:href="#DejaVuSans-6d" x="124.755859"/>
      <use xlink:href="#DejaVuSans-70" x="222.167969"/>
      <use xlink:href="#DejaVuSans-6c" x="285.644531"/>
      <use xlink:href="#DejaVuSans-65" x="313.427734"/>
      <use xlink:href="#DejaVuSans-20" x="374.951172"/>
      <use xlink:href="#DejaVuSans-51" x="406.738281"/>
      <use xlink:href="#DejaVuSans-75" x="485.449219"/>
      <use xlink:href="#DejaVuSans-61" x="548.828125"/>
      <use xlink:href="#DejaVuSans-6e" x="610.107422"/>
      <use xlink:href="#DejaVuSans-74" x="673.486328"/>
      <use xlink:href="#DejaVuSans-69" x="712.695312"/>
      <use xlink:href="#DejaVuSans-6c" x="740.478516"/>
      <use xlink:href="#DejaVuSans-65" x="768.261719"/>
      <use xlink:href="#DejaVuSans-73" x="829.785156"/>
     </g>
    </g>
   </g>
   <g id="line2d_12">
    <defs>
     <path id="m97dcf39b6a" d="M 0 3 
C 0.795609 3 1.55874 2.683901 2.12132 2.12132 
C 2.683901 1.55874 3 0.795609 3 0 
C 3 -0.795609 2.683901 -1.55874 2.12132 -2.12132 
C 1.55874 -2.683901 0.795609 -3 0 -3 
C -0.795609 -3 -1.55874 -2.683901 -2.12132 -2.12132 
C -2.683901 -1.55874 -3 -0.795609 -3 0 
C -3 0.795609 -2.683901 1.55874 -2.12132 2.12132 
C -1.55874 2.683901 -0.795609 3 0 3 
z
" style="stroke: #4c72b0"/>
    </defs>
    <g clip-path="url(#p3cf1e89b98)">
     <use xlink:href="#m97dcf39b6a" x="57.721154" y="156.736315" style="fill: #4c72b0; stroke: #4c72b0"/>
     <use xlink:href="#m97dcf39b6a" x="70.166911" y="155.078427" style="fill: #4c72b0; stroke: #4c72b0"/>
     <use xlink:href="#m97dcf39b6a" x="78.061617" y="154.329896" style="fill: #4c72b0; stroke: #4c72b0"/>
     <use xlink:href="#m97dcf39b6a" x="83.999441" y="150.831671" style="fill: #4c72b0; stroke: #4c72b0"/>
     <use xlink:href="#m97dcf39b6a" x="88.828638" y="149.831257" style="fill: #4c72b0; stroke: #4c72b0"/>
     <use xlink:href="#m97dcf39b6a" x="92.93844" y="141.206447" style="fill: #4c72b0; stroke: #4c72b0"/>
     <use xlink:href="#m97dcf39b6a" x="96.541432" y="140.873499" style="fill: #4c72b0; stroke: #4c72b0"/>
     <use xlink:href="#m97dcf39b6a" x="99.767049" y="140.869223" style="fill: #4c72b0; stroke: #4c72b0"/>
     <use xlink:href="#m97dcf39b6a" x="102.700236" y="140.476717" style="fill: #4c72b0; stroke: #4c72b0"/>
     <use xlink:href="#m97dcf39b6a" x="105.399893" y="135.486028" style="fill: #4c72b0; stroke: #4c72b0"/>
     <use xlink:href="#m97dcf39b6a" x="107.908625" y="135.392783" style="fill: #4c72b0; stroke: #4c72b0"/>
     <use xlink:href="#m97dcf39b6a" x="110.258299" y="135.37132" style="fill: #4c72b0; stroke: #4c72b0"/>
     <use xlink:href="#m97dcf39b6a" x="112.473407" y="132.288661" style="fill: #4c72b0; stroke: #4c72b0"/>
     <use xlink:href="#m97dcf39b6a" x="114.573207" y="131.539825" style="fill: #4c72b0; stroke: #4c72b0"/>
     <use xlink:href="#m97dcf39b6a" x="116.573133" y="128.461097" style="fill: #4c72b0; stroke: #4c72b0"/>
     <use xlink:href="#m97dcf39b6a" x="118.485756" y="127.140203" style="fill: #4c72b0; stroke: #4c72b0"/>
     <use xlink:href="#m97dcf39b6a" x="120.321464" y="125.854232" style="fill: #4c72b0; stroke: #4c72b0"/>
     <use xlink:href="#m97dcf39b6a" x="122.088949" y="121.95118" style="fill: #4c72b0; stroke: #4c72b0"/>
     <use xlink:href="#m97dcf39b6a" x="123.795562" y="120.456848" style="fill: #4c72b0; stroke: #4c72b0"/>
     <use xlink:href="#m97dcf39b6a" x="125.447587" y="120.289846" style="fill: #4c72b0; stroke: #4c72b0"/>
     <use xlink:href="#m97dcf39b6a" x="127.050436" y="120.002908" style="fill: #4c72b0; stroke: #4c72b0"/>
     <use xlink:href="#m97dcf39b6a" x="128.608815" y="119.838436" style="fill: #4c72b0; stroke: #4c72b0"/>
     <use xlink:href="#m97dcf39b6a" x="130.126842" y="119.347353" style="fill: #4c72b0; stroke: #4c72b0"/>
     <use xlink:href="#m97dcf39b6a" x="131.608148" y="118.638703" style="fill: #4c72b0; stroke: #4c72b0"/>
     <use xlink:href="#m97dcf39b6a" x="133.055952" y="117.738275" style="fill: #4c72b0; stroke: #4c72b0"/>
     <use xlink:href="#m97dcf39b6a" x="134.473128" y="117.091295" style="fill: #4c72b0; stroke: #4c72b0"/>
     <use xlink:href="#m97dcf39b6a" x="135.862251" y="116.823023" style="fill: #4c72b0; stroke: #4c72b0"/>
     <use xlink:href="#m97dcf39b6a" x="137.225645" y="115.336165" style="fill: #4c72b0; stroke: #4c72b0"/>
     <use xlink:href="#m97dcf39b6a" x="138.565418" y="114.420785" style="fill: #4c72b0; stroke: #4c72b0"/>
     <use xlink:href="#m97dcf39b6a" x="139.883486" y="113.619076" style="fill: #4c72b0; stroke: #4c72b0"/>
     <use xlink:href="#m97dcf39b6a" x="141.181604" y="113.526187" style="fill: #4c72b0; stroke: #4c72b0"/>
     <use xlink:href="#m97dcf39b6a" x="142.461383" y="113.28393" style="fill: #4c72b0; stroke: #4c72b0"/>
     <use xlink:href="#m97dcf39b6a" x="143.72431" y="112.313272" style="fill: #4c72b0; stroke: #4c72b0"/>
     <use xlink:href="#m97dcf39b6a" x="144.971764" y="112.174224" style="fill: #4c72b0; stroke: #4c72b0"/>
     <use xlink:href="#m97dcf39b6a" x="146.205026" y="112.101004" style="fill: #4c72b0; stroke: #4c72b0"/>
     <use xlink:href="#m97dcf39b6a" x="147.425294" y="112.054544" style="fill: #4c72b0; stroke: #4c72b0"/>
     <use xlink:href="#m97dcf39b6a" x="148.63369" y="111.881658" style="fill: #4c72b0; stroke: #4c72b0"/>
     <use xlink:href="#m97dcf39b6a" x="149.831272" y="110.854555" style="fill: #4c72b0; stroke: #4c72b0"/>
     <use xlink:href="#m97dcf39b6a" x="151.019041" y="110.338667" style="fill: #4c72b0; stroke: #4c72b0"/>
     <use xlink:href="#m97dcf39b6a" x="152.197944" y="109.031352" style="fill: #4c72b0; stroke: #4c72b0"/>
     <use xlink:href="#m97dcf39b6a" x="153.368887" y="108.907302" style="fill: #4c72b0; stroke: #4c72b0"/>
     <use xlink:href="#m97dcf39b6a" x="154.532734" y="108.830113" style="fill: #4c72b0; stroke: #4c72b0"/>
     <use xlink:href="#m97dcf39b6a" x="155.690317" y="108.803461" style="fill: #4c72b0; stroke: #4c72b0"/>
     <use xlink:href="#m97dcf39b6a" x="156.842437" y="108.504576" style="fill: #4c72b0; stroke: #4c72b0"/>
     <use xlink:href="#m97dcf39b6a" x="157.989872" y="108.48128" style="fill: #4c72b0; stroke: #4c72b0"/>
     <use xlink:href="#m97dcf39b6a" x="159.133376" y="107.952215" style="fill: #4c72b0; stroke: #4c72b0"/>
     <use xlink:href="#m97dcf39b6a" x="160.273688" y="107.407192" style="fill: #4c72b0; stroke: #4c72b0"/>
     <use xlink:href="#m97dcf39b6a" x="161.411531" y="107.261561" style="fill: #4c72b0; stroke: #4c72b0"/>
     <use xlink:href="#m97dcf39b6a" x="162.547619" y="106.797462" style="fill: #4c72b0; stroke: #4c72b0"/>
     <use xlink:href="#m97dcf39b6a" x="163.682656" y="106.498266" style="fill: #4c72b0; stroke: #4c72b0"/>
     <use xlink:href="#m97dcf39b6a" x="164.817344" y="105.20967" style="fill: #4c72b0; stroke: #4c72b0"/>
     <use xlink:href="#m97dcf39b6a" x="165.952381" y="104.623458" style="fill: #4c72b0; stroke: #4c72b0"/>
     <use xlink:href="#m97dcf39b6a" x="167.088469" y="104.410663" style="fill: #4c72b0; stroke: #4c72b0"/>
     <use xlink:href="#m97dcf39b6a" x="168.226312" y="104.410222" style="fill: #4c72b0; stroke: #4c72b0"/>
     <use xlink:href="#m97dcf39b6a" x="169.366624" y="104.380941" style="fill: #4c72b0; stroke: #4c72b0"/>
     <use xlink:href="#m97dcf39b6a" x="170.510128" y="103.808709" style="fill: #4c72b0; stroke: #4c72b0"/>
     <use xlink:href="#m97dcf39b6a" x="171.657563" y="103.38073" style="fill: #4c72b0; stroke: #4c72b0"/>
     <use xlink:href="#m97dcf39b6a" x="172.809683" y="102.430609" style="fill: #4c72b0; stroke: #4c72b0"/>
     <use xlink:href="#m97dcf39b6a" x="173.967266" y="102.185799" style="fill: #4c72b0; stroke: #4c72b0"/>
     <use xlink:href="#m97dcf39b6a" x="175.131113" y="101.031949" style="fill: #4c72b0; stroke: #4c72b0"/>
     <use xlink:href="#m97dcf39b6a" x="176.302056" y="99.747831" style="fill: #4c72b0; stroke: #4c72b0"/>
     <use xlink:href="#m97dcf39b6a" x="177.480959" y="99.238787" style="fill: #4c72b0; stroke: #4c72b0"/>
     <use xlink:href="#m97dcf39b6a" x="178.668728" y="98.689856" style="fill: #4c72b0; stroke: #4c72b0"/>
     <use xlink:href="#m97dcf39b6a" x="179.86631" y="98.046541" style="fill: #4c72b0; stroke: #4c72b0"/>
     <use xlink:href="#m97dcf39b6a" x="181.074706" y="96.716749" style="fill: #4c72b0; stroke: #4c72b0"/>
     <use xlink:href="#m97dcf39b6a" x="182.294974" y="96.696742" style="fill: #4c72b0; stroke: #4c72b0"/>
     <use xlink:href="#m97dcf39b6a" x="183.528236" y="96.600316" style="fill: #4c72b0; stroke: #4c72b0"/>
     <use xlink:href="#m97dcf39b6a" x="184.77569" y="96.113314" style="fill: #4c72b0; stroke: #4c72b0"/>
     <use xlink:href="#m97dcf39b6a" x="186.038617" y="95.443897" style="fill: #4c72b0; stroke: #4c72b0"/>
     <use xlink:href="#m97dcf39b6a" x="187.318396" y="95.138418" style="fill: #4c72b0; stroke: #4c72b0"/>
     <use xlink:href="#m97dcf39b6a" x="188.616514" y="94.672498" style="fill: #4c72b0; stroke: #4c72b0"/>
     <use xlink:href="#m97dcf39b6a" x="189.934582" y="94.534717" style="fill: #4c72b0; stroke: #4c72b0"/>
     <use xlink:href="#m97dcf39b6a" x="191.274355" y="94.442723" style="fill: #4c72b0; stroke: #4c72b0"/>
     <use xlink:href="#m97dcf39b6a" x="192.637749" y="94.349125" style="fill: #4c72b0; stroke: #4c72b0"/>
     <use xlink:href="#m97dcf39b6a" x="194.026872" y="93.538803" style="fill: #4c72b0; stroke: #4c72b0"/>
     <use xlink:href="#m97dcf39b6a" x="195.444048" y="93.137327" style="fill: #4c72b0; stroke: #4c72b0"/>
     <use xlink:href="#m97dcf39b6a" x="196.891852" y="89.482057" style="fill: #4c72b0; stroke: #4c72b0"/>
     <use xlink:href="#m97dcf39b6a" x="198.373158" y="89.381292" style="fill: #4c72b0; stroke: #4c72b0"/>
     <use xlink:href="#m97dcf39b6a" x="199.891185" y="88.365861" style="fill: #4c72b0; stroke: #4c72b0"/>
     <use xlink:href="#m97dcf39b6a" x="201.449564" y="88.264026" style="fill: #4c72b0; stroke: #4c72b0"/>
     <use xlink:href="#m97dcf39b6a" x="203.052413" y="87.514799" style="fill: #4c72b0; stroke: #4c72b0"/>
     <use xlink:href="#m97dcf39b6a" x="204.704438" y="85.600422" style="fill: #4c72b0; stroke: #4c72b0"/>
     <use xlink:href="#m97dcf39b6a" x="206.411051" y="84.904715" style="fill: #4c72b0; stroke: #4c72b0"/>
     <use xlink:href="#m97dcf39b6a" x="208.178536" y="84.370919" style="fill: #4c72b0; stroke: #4c72b0"/>
     <use xlink:href="#m97dcf39b6a" x="210.014244" y="82.488843" style="fill: #4c72b0; stroke: #4c72b0"/>
     <use xlink:href="#m97dcf39b6a" x="211.926867" y="81.26612" style="fill: #4c72b0; stroke: #4c72b0"/>
     <use xlink:href="#m97dcf39b6a" x="213.926793" y="81.240638" style="fill: #4c72b0; stroke: #4c72b0"/>
     <use xlink:href="#m97dcf39b6a" x="216.026593" y="80.94088" style="fill: #4c72b0; stroke: #4c72b0"/>
     <use xlink:href="#m97dcf39b6a" x="218.241701" y="79.87979" style="fill: #4c72b0; stroke: #4c72b0"/>
     <use xlink:href="#m97dcf39b6a" x="220.591375" y="77.99206" style="fill: #4c72b0; stroke: #4c72b0"/>
     <use xlink:href="#m97dcf39b6a" x="223.100107" y="73.942109" style="fill: #4c72b0; stroke: #4c72b0"/>
     <use xlink:href="#m97dcf39b6a" x="225.799764" y="73.444145" style="fill: #4c72b0; stroke: #4c72b0"/>
     <use xlink:href="#m97dcf39b6a" x="228.732951" y="72.208179" style="fill: #4c72b0; stroke: #4c72b0"/>
     <use xlink:href="#m97dcf39b6a" x="231.958568" y="69.020457" style="fill: #4c72b0; stroke: #4c72b0"/>
     <use xlink:href="#m97dcf39b6a" x="235.56156" y="57.586778" style="fill: #4c72b0; stroke: #4c72b0"/>
     <use xlink:href="#m97dcf39b6a" x="239.671362" y="56.683545" style="fill: #4c72b0; stroke: #4c72b0"/>
     <use xlink:href="#m97dcf39b6a" x="244.500559" y="55.615532" style="fill: #4c72b0; stroke: #4c72b0"/>
     <use xlink:href="#m97dcf39b6a" x="250.438383" y="52.903173" style="fill: #4c72b0; stroke: #4c72b0"/>
     <use xlink:href="#m97dcf39b6a" x="258.333089" y="36.883022" style="fill: #4c72b0; stroke: #4c72b0"/>
     <use xlink:href="#m97dcf39b6a" x="270.778846" y="20.004545" style="fill: #4c72b0; stroke: #4c72b0"/>
    </g>
   </g>
   <g id="line2d_13">
    <path d="M 57.721154 160.895455 
L 70.166911 154.291927 
L 78.061617 150.103117 
L 83.999441 146.9526 
L 88.828638 144.390302 
L 92.93844 142.209704 
L 96.541432 140.298012 
L 99.767049 138.586549 
L 102.700236 137.030245 
L 105.399893 135.597848 
L 107.908625 134.266754 
L 110.258299 133.020053 
L 112.473407 131.844751 
L 114.573207 130.730629 
L 116.573133 129.669499 
L 118.485756 128.654691 
L 120.321464 127.680692 
L 122.088949 126.742892 
L 123.795562 125.837389 
L 125.447587 124.96085 
L 127.050436 124.110403 
L 128.608815 123.283551 
L 130.126842 122.478109 
L 131.608148 121.692151 
L 133.055952 120.923968 
L 134.473128 120.172037 
L 135.862251 119.43499 
L 137.225645 118.711593 
L 138.565418 118.000731 
L 139.883486 117.301384 
L 141.181604 116.612623 
L 142.461383 115.933592 
L 143.72431 115.263502 
L 144.971764 114.601622 
L 146.205026 113.947272 
L 147.425294 113.299817 
L 148.63369 112.65866 
L 149.831272 112.023241 
L 151.019041 111.39303 
L 152.197944 110.767522 
L 153.368887 110.146238 
L 154.532734 109.528718 
L 155.690317 108.914523 
L 156.842437 108.303225 
L 157.989872 107.694414 
L 159.133376 107.087688 
L 160.273688 106.482656 
L 161.411531 105.878934 
L 162.547619 105.276143 
L 163.682656 104.67391 
L 164.817344 104.071862 
L 165.952381 103.469629 
L 167.088469 102.866838 
L 168.226312 102.263116 
L 169.366624 101.658084 
L 170.510128 101.051358 
L 171.657563 100.442547 
L 172.809683 99.83125 
L 173.967266 99.217054 
L 175.131113 98.599535 
L 176.302056 97.978251 
L 177.480959 97.352743 
L 178.668728 96.722531 
L 179.86631 96.087112 
L 181.074706 95.445956 
L 182.294974 94.7985 
L 183.528236 94.144151 
L 184.77569 93.482271 
L 186.038617 92.812181 
L 187.318396 92.13315 
L 188.616514 91.444388 
L 189.934582 90.745042 
L 191.274355 90.034179 
L 192.637749 89.310783 
L 194.026872 88.573735 
L 195.444048 87.821804 
L 196.891852 87.053621 
L 198.373158 86.267663 
L 199.891185 85.462221 
L 201.449564 84.635369 
L 203.052413 83.784922 
L 204.704438 82.908383 
L 206.411051 82.00288 
L 208.178536 81.06508 
L 210.014244 80.091082 
L 211.926867 79.076273 
L 213.926793 78.015144 
L 216.026593 76.901022 
L 218.241701 75.725719 
L 220.591375 74.479019 
L 223.100107 73.147924 
L 225.799764 71.715527 
L 228.732951 70.159223 
L 231.958568 68.447761 
L 235.56156 66.536069 
L 239.671362 64.35547 
L 244.500559 61.793173 
L 250.438383 58.642655 
L 258.333089 54.453845 
L 270.778846 47.850318 
" clip-path="url(#p3cf1e89b98)" style="fill: none; stroke: #c44e52; stroke-width: 1.5; stroke-linecap: round"/>
   </g>
   <g id="patch_3">
    <path d="M 53.46 167.94 
L 53.46 12.96 
" style="fill: none; stroke: #ffffff; stroke-width: 1.25; stroke-linejoin: miter; stroke-linecap: square"/>
   </g>
   <g id="patch_4">
    <path d="M 275.04 167.94 
L 275.04 12.96 
" style="fill: none; stroke: #ffffff; stroke-width: 1.25; stroke-linejoin: miter; stroke-linecap: square"/>
   </g>
   <g id="patch_5">
    <path d="M 53.46 167.94 
L 275.04 167.94 
" style="fill: none; stroke: #ffffff; stroke-width: 1.25; stroke-linejoin: miter; stroke-linecap: square"/>
   </g>
   <g id="patch_6">
    <path d="M 53.46 12.96 
L 275.04 12.96 
" style="fill: none; stroke: #ffffff; stroke-width: 1.25; stroke-linejoin: miter; stroke-linecap: square"/>
   </g>
  </g>
 </g>
 <defs>
  <clipPath id="p3cf1e89b98">
   <rect x="53.46" y="12.96" width="221.58" height="154.98"/>
  </clipPath>
 </defs>
</svg>
